<?xml version="1.0" encoding="UTF-8"?><svg xmlns="http://www.w3.org/2000/svg" xmlns:xlink="http://www.w3.org/1999/xlink" viewBox="0 0 401.71 256.42"><defs><style>.f{fill:#f05d5e;}.g,.h{fill:#fff;}.i{stroke-dasharray:0 0 0 0 7.37 3.69 7.37 3.69;}.i,.h,.j,.k,.l,.m{stroke-miterlimit:10;stroke-width:2px;}.i,.j,.k,.l,.m{fill:none;stroke:#7f3f98;}.h{stroke:#7a28a0;}.n{fill:#4a89c7;}.o{fill:#ef5d5e;}.o,.p,.q,.r,.s,.t,.u,.v{fill-rule:evenodd;}.w{fill:#fefeff;}.p{fill:#c9c2ee;}.x{fill:#e1e1e1;}.q,.y{fill:#773493;}.a`{opacity:.3;}.r{fill:#dcd7eb;}.aa{fill:#eaeaea;}.ab{fill:#ffc19d;}.ac{fill:#fcb832;}.j{stroke-dasharray:0 0 0 0 9.98 4.99 9.98 4.99;}.ad{fill:#ff9c6a;}.ae{fill:#375a64;}.s{fill:url(#e);}.af{fill:#6167fa;font-family:OpenSans, Open Sans;font-size:34.55px;}.k{stroke-dasharray:0 0 0 0 11.18 5.59 11.18 5.59;}.ag{mask:url(#d);}.ah,.t{fill:#ece8f9;}.ai{fill:#7044ab;}.u{fill:#e9f6fd;}.v{fill:#fcb833;}.aj{fill:#ffbd4a;}.ak{fill:#662f89;}.al{fill:#919191;}.l{stroke-dasharray:0 0 0 0 0 0 9.98 4.99 9.98 4.99 9.98 4.99;}.am{fill:#1a2e35;}.an{fill:#482166;}</style><linearGradient id="e" x1="197.92" y1="18.66" x2="204.08" y2="420.32" gradientTransform="matrix(1, 0, 0, 1, 0, 0)" gradientUnits="userSpaceOnUse"><stop offset=".25" stop-color="#000"/><stop offset="1" stop-color="#fff"/></linearGradient><mask id="d" y="7.83" width="401.71" height="248.59" maskUnits="userSpaceOnUse"><path class="s" d="M329.58,185.07c-10.28,0-18.7-8.41-18.7-18.7h0c0-10.28,8.41-18.7,18.7-18.7h2.23c10.69,0,19.44-8.75,19.44-19.44h0c0-10.69-8.75-19.44-19.44-19.44h-43.22s-31.61-1.46-37.69-19.52c-6.09-18.06-10.99-27.14-45.74-27.14h-17.54c-7.09,0-12.9-5.81-12.9-12.9h0c0-7.09,5.8-12.9,12.9-12.9h5.37c4.9,0,8.9-4.01,8.9-8.9h0c0-4.9-4.01-8.9-8.9-8.9h-58.05c-22.87,0-23.88-10.7-32.94-10.7H58.99c-3.75,0-6.82,3.07-6.82,6.82h0c0,3.75,3.07,6.82,6.82,6.82h6.55c5.44,0,9.89,4.45,9.89,9.89h0c0,5.44-4.45,9.89-9.89,9.89H28.37c-13.97,0-25.39,11.43-25.39,25.39h0c0,13.97,11.43,25.39,25.39,25.39h29.4c13.43,0,24.43,10.99,24.43,24.43h0c0,13.43-10.99,24.42-24.43,24.42h0C25.99,140.89,0,166.88,0,198.65H0c0,31.77,25.99,57.77,57.77,57.77H366.03c19.62,0,35.67-16.05,35.67-35.67h0c0-19.62-16.05-35.67-35.67-35.67h-36.46ZM33.02,14.65c0-3.77,3.06-6.82,6.82-6.82,3.77,0,6.82,3.05,6.82,6.82,0,3.77-3.06,6.82-6.82,6.82-3.77,0-6.82-3.05-6.82-6.82Z"/></mask></defs><g id="a"/><g id="b"><g id="c"><g class="ag"><path class="r" d="M329.58,185.07c-10.28,0-18.7-8.41-18.7-18.7h0c0-10.28,8.41-18.7,18.7-18.7h2.23c10.69,0,19.44-8.75,19.44-19.44h0c0-10.69-8.75-19.44-19.44-19.44h-43.22s-31.61-1.46-37.69-19.52c-6.09-18.06-10.99-27.14-45.74-27.14h-17.54c-7.09,0-12.9-5.81-12.9-12.9h0c0-7.09,5.8-12.9,12.9-12.9h5.37c4.9,0,8.9-4.01,8.9-8.9h0c0-4.9-4.01-8.9-8.9-8.9h-58.05c-22.87,0-23.88-10.7-32.94-10.7H58.99c-3.75,0-6.82,3.07-6.82,6.82h0c0,3.75,3.07,6.82,6.82,6.82h6.55c5.44,0,9.89,4.45,9.89,9.89h0c0,5.44-4.45,9.89-9.89,9.89H28.37c-13.97,0-25.39,11.43-25.39,25.39h0c0,13.97,11.43,25.39,25.39,25.39h29.4c13.43,0,24.43,10.99,24.43,24.43h0c0,13.43-10.99,24.42-24.43,24.42h0C25.99,140.89,0,166.88,0,198.65H0c0,31.77,25.99,57.77,57.77,57.77H366.03c19.62,0,35.67-16.05,35.67-35.67h0c0-19.62-16.05-35.67-35.67-35.67h-36.46ZM33.02,14.65c0-3.77,3.06-6.82,6.82-6.82,3.77,0,6.82,3.05,6.82,6.82,0,3.77-3.06,6.82-6.82,6.82-3.77,0-6.82-3.05-6.82-6.82Z"/></g><ellipse class="al" cx="326.85" cy="240.47" rx="62.56" ry="5.6"/><g><path class="ak" d="M169.74,14.13H61.76c-1.92,0-3.47,1.56-3.47,3.47V87.11h114.93V17.61c0-1.92-1.56-3.47-3.47-3.47Z"/><path class="g" d="M60.89,87.11V17.61c0-.48,.39-.87,.87-.87h107.98c.48,0,.87,.39,.87,.87V87.11H60.89Z"/><rect class="aa" x="63.06" y="19.17" width="105.37" height="63.5"/><polygon class="an" points="98.43 110.12 116.18 110.12 133.94 110.12 135.48 109.01 96.88 109.01 98.43 110.12"/><path class="ak" d="M102.79,106.21s-.22,1.98-2.73,2.32l-3.18,.48h38.6l-3.18-.48c-2.51-.34-2.73-2.32-2.73-2.32l-.4-3.8-25.91-.56-.46,4.35Z"/><polygon class="an" points="103.26 101.86 129.17 102.42 128.77 98.69 103.6 98.69 103.26 101.86"/><path class="ak" d="M58.28,87.11v8.11c0,1.92,1.56,3.47,3.47,3.47h107.98c1.92,0,3.47-1.56,3.47-3.47v-8.11H58.28Z"/><path class="w" d="M121.97,93.01c0,.69-.56,1.25-1.25,1.25h-9.07c-.69,0-1.25-.56-1.25-1.25h0c0-.69,.56-1.25,1.25-1.25h9.07c.69,0,1.25,.56,1.25,1.25h0Z"/><rect class="g" x="67.19" y="23.26" width="97.99" height="9.74"/><rect class="aj" x="133.3" y="36.87" width="31.88" height="5.05"/><rect class="g" x="133.3" y="41.93" width="31.88" height="36.7"/><rect class="aj" x="95.61" y="50.46" width="34.58" height="5.48"/><rect class="g" x="95.61" y="55.95" width="34.58" height="22.68"/><rect class="aj" x="67.19" y="36.87" width="63" height="5.05"/><polygon class="g" points="130.19 41.93 130.19 48.93 94.3 48.93 94.3 78.63 67.19 78.63 67.19 41.93 130.19 41.93"/></g><g><line class="m" x1="174.29" y1="47.25" x2="179.29" y2="47.25"/><line class="i" x1="182.98" y1="47.25" x2="203.25" y2="47.25"/><line class="m" x1="205.1" y1="47.25" x2="210.1" y2="47.25"/></g><g><line class="m" x1="259.8" y1="111" x2="259.8" y2="116"/><line class="j" x1="259.8" y1="120.99" x2="259.8" y2="148.42"/><line class="l" x1="259.8" y1="150.92" x2="259.8" y2="193.31"/><polyline class="m" points="259.8 195.81 259.8 200.81 254.8 200.81"/><line class="k" x1="249.21" y1="200.81" x2="218.45" y2="200.81"/><line class="m" x1="215.66" y1="200.81" x2="210.66" y2="200.81"/></g><path class="h" d="M251.6,98.46l16.89-.06,4.38-12.19c4.55-1.62,8.71-4.07,12.3-7.17l12.23,3.17,8.62-15.05-8.06-10.44c.42-2.31,.65-4.69,.64-7.12,0-2.43-.25-4.81-.69-7.11l8.29-9.97-8.81-15.14-12.44,2.87c-3.61-3.07-7.78-5.49-12.34-7.08l-4.47-12.16-16.89,.06-4.38,12.19c-4.55,1.62-8.71,4.07-12.3,7.17l-12.37-2.93-8.7,15.2,8.28,10.06c-.42,2.31-.65,4.69-.64,7.12,0,2.43,.25,4.81,.69,7.11l-8.8,9.09,8.99,15.45,12.76-2.3c3.61,3.07,7.78,5.49,12.34,7.08l4.47,12.16Z"/><text class="af" transform="translate(233.1 62)"><tspan x="0" y="0">API</tspan></text><g><g><rect class="ak" x="71.95" y="154.15" width="137.14" height="90.69" rx="6.21" ry="6.21"/><path class="ak" d="M209.97,246.07H71.38c-2.86,0-5.17-2.32-5.17-5.17v-1.3c0-.81,.66-1.47,1.47-1.47H213.33c.81,0,1.47,.66,1.47,1.47v1.65c0,2.66-2.16,4.82-4.82,4.82Z"/><rect class="g" x="75.63" y="157.75" width="129.4" height="76.59" rx="2.75" ry="2.75"/><path class="ah" d="M128.41,240.01h0c.27,.43,.74,.69,1.24,.69h24.29c.52,0,1-.28,1.27-.73h0c.57-.98-.13-2.21-1.27-2.21h-24.29c-1.15,0-1.86,1.27-1.24,2.25Z"/></g><rect class="ah" x="71.95" y="237.71" width="137.14" height=".44"/></g><g><path class="u" d="M76.26,161.72h127.96c.08,0,.14,.05,.14,.12v68.53c0,.07-.06,.12-.14,.12H76.26c-.08,0-.14-.05-.14-.12v-68.53c0-.07,.06-.12,.14-.12"/><rect class="ah" x="80.1" y="170.03" width="36.76" height="56.82"/><path class="p" d="M82.8,215.91h23.36c.52,0,.95,.43,.95,.95s-.43,.95-.95,.95h-23.36c-.52,0-.95-.43-.95-.95s.43-.95,.95-.95"/><path class="o" d="M82.8,172.9h8.69c.52,0,.95,.43,.95,.95s-.43,.95-.95,.95h-8.69c-.52,0-.95-.43-.95-.95s.43-.95,.95-.95"/><path class="p" d="M82.8,178.27h29.03c.52,0,.95,.43,.95,.95s-.43,.95-.95,.95h-29.03c-.52,0-.95-.43-.95-.95s.43-.95,.95-.95"/><path class="p" d="M82.8,183.4h29.03c.52,0,.95,.43,.95,.95s-.43,.95-.95,.95h-29.03c-.52,0-.95-.43-.95-.95s.43-.95,.95-.95"/><path class="o" d="M82.8,188.53h7.91c.52,0,.95,.43,.95,.95s-.43,.95-.95,.95h-7.91c-.52,0-.95-.43-.95-.95s.43-.95,.95-.95"/><path class="o" d="M94.03,188.53h7.91c.52,0,.95,.43,.95,.95s-.43,.95-.95,.95h-7.91c-.52,0-.95-.43-.95-.95s.43-.95,.95-.95"/><path class="p" d="M82.8,194.74h10.64c.52,0,.95,.43,.95,.95s-.43,.95-.95,.95h-10.64c-.52,0-.95-.43-.95-.95s.43-.95,.95-.95"/><path class="o" d="M97.15,194.74h10.64c.52,0,.95,.43,.95,.95s-.43,.95-.95,.95h-10.64c-.52,0-.95-.43-.95-.95s.43-.95,.95-.95"/><path class="p" d="M82.8,199.38h12.86c.52,0,.95,.43,.95,.95s-.43,.95-.95,.95h-12.86c-.52,0-.95-.43-.95-.95s.43-.95,.95-.95"/><path class="p" d="M99.7,199.38h12.86c.52,0,.95,.43,.95,.95s-.43,.95-.95,.95h-12.86c-.52,0-.95-.43-.95-.95s.43-.95,.95-.95"/><path class="o" d="M82.8,204.64h8.69c.52,0,.95,.43,.95,.95s-.43,.95-.95,.95h-8.69c-.52,0-.95-.43-.95-.95s.43-.95,.95-.95"/><path class="p" d="M82.8,210.72h12.86c.52,0,.95,.43,.95,.95s-.43,.95-.95,.95h-12.86c-.52,0-.95-.43-.95-.95s.43-.95,.95-.95"/><path class="p" d="M99.7,210.72h12.86c.52,0,.95,.43,.95,.95s-.43,.95-.95,.95h-12.86c-.52,0-.95-.43-.95-.95s.43-.95,.95-.95"/><path class="n" d="M193.83,165.65H91.16c-.26,0-.49,.1-.66,.27-.17,.17-.28,.39-.28,.65s.11,.48,.28,.65c.17,.17,.4,.27,.66,.27h102.66c.26,0,.49-.1,.66-.27,.17-.17,.28-.39,.28-.65s-.11-.48-.28-.65c-.17-.17-.4-.27-.66-.27m-102.66-.34h102.66c.35,0,.67,.14,.91,.37,.23,.23,.38,.54,.38,.89s-.14,.66-.38,.89c-.23,.23-.55,.37-.91,.37H91.16c-.35,0-.68-.14-.91-.37-.23-.23-.38-.54-.38-.89s.14-.66,.38-.89c.23-.23,.55-.37,.91-.37Z"/><rect class="y" x="84.47" y="165.22" width="2.84" height="2.69"/><rect class="y" x="80.1" y="165.22" width="2.76" height="2.69"/><path class="p" d="M112.97,132.64c-4.54,0-8.23,3.6-8.23,7.4s2.7,6.43,6.33,7.2h10.12v-7.2c0-4.08-3.68-7.4-8.23-7.4"/><path class="t" d="M112.89,132.64h0Zm8.31,18.46h-.03v79.55h78.79v-90.62c0-4.09-3.68-7.4-8.23-7.4H112.97c4.54,0,8.23,3.31,8.23,7.4v11.07Z"/><path class="p" d="M140.3,145.58v-1.45l3.61-1.42-3.61-1.41v-1.44l5.18,2.24v1.24l-5.18,2.26Zm-4.61,.98l1.88-7.8h1.09l-1.89,7.8h-1.07Zm-1.65-.99l-5.17-2.25v-1.25l5.17-2.24v1.47l-3.61,1.38,3.61,1.43v1.45Z"/><path class="q" d="M132.99,152.11h11.77c.38,0,.7,.31,.7,.7s-.31,.7-.7,.7h-11.77c-.38,0-.7-.31-.7-.7s.31-.7,.7-.7"/><path class="p" d="M148.16,152.11h6.48c.38,0,.7,.31,.7,.7s-.31,.7-.7,.7h-6.48c-.38,0-.7-.31-.7-.7s.31-.7,.7-.7"/><path class="q" d="M136.88,156.78h13.31c.38,0,.7,.31,.7,.7s-.31,.7-.7,.7h-13.31c-.38,0-.7-.31-.7-.7s.31-.7,.7-.7"/><path class="p" d="M153.83,156.78h7.4c.38,0,.7,.31,.7,.7s-.31,.7-.7,.7h-7.4c-.38,0-.7-.31-.7-.7s.31-.7,.7-.7"/><path class="p" d="M164.96,156.78h9.19c.38,0,.7,.31,.7,.7s-.31,.7-.7,.7h-9.19c-.38,0-.7-.31-.7-.7s.31-.7,.7-.7"/><path class="p" d="M136.88,161.69h17.7c.38,0,.7,.31,.7,.7s-.31,.7-.7,.7h-17.7c-.38,0-.7-.31-.7-.7s.31-.7,.7-.7"/><path class="v" d="M158.19,161.69h8.48c.38,0,.7,.31,.7,.7s-.31,.7-.7,.7h-8.48c-.38,0-.7-.31-.7-.7s.31-.7,.7-.7"/><path class="p" d="M170.04,161.69h13.93c.38,0,.7,.31,.7,.7s-.31,.7-.7,.7h-13.93c-.38,0-.7-.31-.7-.7s.31-.7,.7-.7"/><path class="v" d="M136.88,166.49h6.63c.38,0,.7,.31,.7,.7s-.31,.7-.7,.7h-6.63c-.38,0-.7-.31-.7-.7s.31-.7,.7-.7"/><path class="p" d="M146.76,166.49h23.57c.38,0,.7,.31,.7,.7s-.31,.7-.7,.7h-23.57c-.38,0-.7-.31-.7-.7s.31-.7,.7-.7"/><path class="q" d="M136.88,171.13h17.7c.38,0,.7,.31,.7,.7s-.31,.7-.7,.7h-17.7c-.38,0-.7-.31-.7-.7s.31-.7,.7-.7"/><path class="p" d="M158.19,171.13h8.48c.38,0,.7,.31,.7,.7s-.31,.7-.7,.7h-8.48c-.38,0-.7-.31-.7-.7s.31-.7,.7-.7"/><path class="p" d="M170.04,171.13h13.93c.38,0,.7,.31,.7,.7s-.31,.7-.7,.7h-13.93c-.38,0-.7-.31-.7-.7s.31-.7,.7-.7"/><path class="p" d="M136.88,176.02h17.7c.38,0,.7,.31,.7,.7s-.31,.7-.7,.7h-17.7c-.38,0-.7-.31-.7-.7s.31-.7,.7-.7"/><path class="p" d="M158.19,176.02h8.48c.38,0,.7,.31,.7,.7s-.31,.7-.7,.7h-8.48c-.38,0-.7-.31-.7-.7s.31-.7,.7-.7"/><path class="p" d="M132.99,180.63h14.22c.38,0,.7,.31,.7,.7s-.31,.7-.7,.7h-14.22c-.38,0-.7-.31-.7-.7s.31-.7,.7-.7"/><path class="p" d="M150.98,180.63h7.94c.38,0,.7,.31,.7,.7s-.31,.7-.7,.7h-7.94c-.38,0-.7-.31-.7-.7s.31-.7,.7-.7"/><path class="p" d="M136.88,186.35h19.48c.38,0,.7,.31,.7,.7s-.31,.7-.7,.7h-19.48c-.38,0-.7-.31-.7-.7s.31-.7,.7-.7"/><path class="q" d="M160.17,186.35h9.4c.38,0,.7,.31,.7,.7s-.31,.7-.7,.7h-9.4c-.38,0-.7-.31-.7-.7s.31-.7,.7-.7"/><path class="p" d="M136.88,191.28h17.83c.38,0,.7,.31,.7,.7s-.31,.7-.7,.7h-17.83c-.38,0-.7-.31-.7-.7s.31-.7,.7-.7"/><path class="p" d="M158.33,191.28h8.55c.38,0,.7,.31,.7,.7s-.31,.7-.7,.7h-8.55c-.38,0-.7-.31-.7-.7s.31-.7,.7-.7"/><path class="v" d="M136.88,196.01h6.12c.38,0,.7,.31,.7,.7s-.31,.7-.7,.7h-6.12c-.38,0-.7-.31-.7-.7s.31-.7,.7-.7"/><path class="p" d="M146.31,196.01h24.05c.38,0,.7,.31,.7,.7s-.31,.7-.7,.7h-24.05c-.38,0-.7-.31-.7-.7s.31-.7,.7-.7"/><path class="q" d="M136.88,200.84h15.23c.38,0,.7,.31,.7,.7s-.31,.7-.7,.7h-15.23c-.38,0-.7-.31-.7-.7s.31-.7,.7-.7"/><path class="p" d="M155.43,200.84h7.2c.38,0,.7,.31,.7,.7s-.31,.7-.7,.7h-7.2c-.38,0-.7-.31-.7-.7s.31-.7,.7-.7"/><path class="p" d="M166.2,200.84h17.8c.38,0,.7,.31,.7,.7s-.31,.7-.7,.7h-17.8c-.38,0-.7-.31-.7-.7s.31-.7,.7-.7"/><path class="p" d="M136.88,205.4h6.12c.38,0,.7,.31,.7,.7s-.31,.7-.7,.7h-6.12c-.38,0-.7-.31-.7-.7s.31-.7,.7-.7"/><path class="p" d="M146.31,205.4h24.05c.38,0,.7,.31,.7,.7s-.31,.7-.7,.7h-24.05c-.38,0-.7-.31-.7-.7s.31-.7,.7-.7"/><path class="p" d="M132.99,210.38h14.22c.38,0,.7,.31,.7,.7s-.31,.7-.7,.7h-14.22c-.38,0-.7-.31-.7-.7s.31-.7,.7-.7"/><path class="q" d="M150.98,210.38h7.94c.38,0,.7,.31,.7,.7s-.31,.7-.7,.7h-7.94c-.38,0-.7-.31-.7-.7s.31-.7,.7-.7"/><path class="p" d="M140.3,223.96v-1.45l3.61-1.42-3.61-1.41v-1.44l5.18,2.24v1.24l-5.18,2.26Zm-4.61,.98l1.88-7.8h1.09l-1.89,7.8h-1.07Zm-1.65-.99l-5.17-2.25v-1.25l5.17-2.24v1.46l-3.61,1.38,3.61,1.43v1.45Z"/></g><g><g><path class="am" d="M350.7,58.99c1.81-.36,3.73,.22,5.23,1.31,1.05,.76,1.94,1.78,2.39,2.99,.45,1.21,.44,2.62-.18,3.76-.64,1.17-1.84,1.94-3.09,2.43-1.04,.41-2.18,.66-3.29,.51-1.11-.15-2.2-.74-2.77-1.7l-2.14-4.52c0-2.9,2.02-4.41,3.84-4.77Z"/><path class="am" d="M330.47,64.62h0c3.73-4.73,10.4-6.11,15.6-3.07,.53,.31,1.04,.65,1.52,1,3.35,2.47,5.23,6.73,4.98,10.89-.24,4.15-2.53,8.1-5.9,10.54l-16.29-3.97c-1.02-2.76-1.46-5.41-1.79-8.75-.03-.35-.05-.79-.04-1.28,.04-1.95,.72-3.83,1.92-5.35Z"/><g><path class="ab" d="M348.64,71.25c-.19-2.69-1.93-4.9-4.55-5.57l-8.15-2.08c-3.52-.38-5.88,3.95-6.11,7.49-.26,3.93-.41,8.07,.04,11.01,.92,5.9,5.44,6.66,5.44,6.66,0,0,0,2.8,0,4.53l-.08,7.5,11.61-8.35,1.82-21.11c0-.1-.01,.06-.02-.07Z"/><path class="ad" d="M343.14,86.66s-1.92,4.05-7.82,3.48v-1.39s3.88,.26,7.82-2.1Z"/><g><path class="ab" d="M347.83,75.52c.06-.17,3.14-1.28,3.18,1.99,.04,3.18-3.16,2.55-3.17,2.46,0-.09,0-4.45,0-4.45Z"/><path class="ad" d="M348.81,78.76s.06,.04,.15,.08c.09,.04,.25,.07,.41,0,.33-.13,.61-.66,.62-1.23,0-.29-.06-.56-.16-.79-.1-.23-.25-.39-.42-.42-.17-.04-.29,.06-.32,.15-.04,.09-.02,.15-.04,.16,0,0-.07-.05-.04-.18,.01-.06,.05-.14,.12-.2,.08-.06,.19-.1,.31-.08,.25,.01,.47,.24,.58,.49,.13,.25,.21,.56,.2,.88-.01,.64-.34,1.24-.79,1.38-.22,.06-.41,0-.51-.08-.1-.08-.12-.15-.11-.15Z"/></g><g><path class="g" d="M349.17,79.32c.31-.06,.64,.16,.72,.46,.08,.31-.12,.65-.42,.75-.3,.1-.66-.08-.77-.37-.11-.29,.04-.66,.32-.79"/><path class="am" d="M349.02,79.36s-.21,.11-.29,.43c-.04,.15-.02,.35,.12,.5,.13,.15,.37,.24,.59,.17,.22-.07,.36-.28,.38-.48,.03-.2-.07-.38-.19-.48-.25-.21-.48-.16-.48-.18,0,0,.05-.03,.15-.03,.1,0,.25,.03,.4,.14,.14,.1,.28,.32,.25,.57-.02,.24-.19,.51-.47,.6-.29,.09-.58-.03-.74-.22-.17-.19-.18-.45-.12-.61,.06-.18,.16-.29,.24-.34,.08-.06,.14-.06,.14-.06Z"/></g></g><path class="am" d="M334.41,63.15c.2-.36,.66-.45,1.06-.5,5.64-.61,11.52,1.92,14.95,6.44l-.91,5.49c.38,.68-1.42,2.06-2.2,2.01-.78-.05-1.39-.73-1.67-1.47-.54-1.43-.23-3.27-1.35-4.31-.63-.59-1.54-.74-2.39-.92-1.61-.35-3.18-.95-4.52-1.91s-2.44-2.29-2.95-3.86c-.11-.32-.18-.68-.02-.97Z"/></g><g><g><path class="am" d="M319.41,236.05c.16-.25,1.64-5.64,1.64-5.64l-9.14-2.49-1.3,7.77,8.8,.36Z"/><g><path class="am" d="M311,233.41l-.31,1.37s-10.06,4.1-10.19,6.1l19.89,.14-.25-7.33c-2.97,1.42-5.74,1.17-9.14-.29Z"/><path class="x" d="M320.38,241.02l-.05-1.67-19.04,.47s-.89,.4-.79,1.05l19.89,.14Z"/><path class="ae" d="M310.62,234.84c0,.1,.49,.15,.96,.48,.48,.32,.73,.76,.82,.72,.09-.02-.05-.63-.63-1.02-.58-.4-1.17-.28-1.15-.18Z"/><path class="ae" d="M308.53,235.73c-.02,.1,.4,.28,.72,.71,.34,.42,.42,.89,.52,.89,.09,.02,.16-.58-.25-1.11-.41-.54-.98-.58-.99-.48Z"/><path class="ae" d="M307.32,238.34c.09,.02,.23-.49-.02-1.05-.24-.56-.7-.79-.74-.7-.06,.08,.24,.39,.43,.85,.21,.46,.23,.89,.33,.9Z"/></g></g><g><path class="am" d="M338.43,236.77c-.15-.23-.82-5.99-.82-5.99l7.82-1.61,2.37,7.15-9.38,.44Z"/><g><path class="am" d="M347.34,234.86l.31,1.37s10.06,4.1,10.19,6.1l-19.89,.14,.25-7.33c2.97,1.42,5.74,1.17,9.14-.29Z"/><path class="x" d="M337.96,242.47l.05-1.67,19.04,.47s.89,.4,.79,1.05l-19.89,.14Z"/><path class="ae" d="M347.72,236.29c0,.1-.49,.15-.96,.48-.48,.32-.73,.76-.82,.72-.09-.02,.05-.63,.63-1.02,.58-.4,1.17-.28,1.15-.18Z"/><path class="ae" d="M349.81,237.18c.02,.1-.4,.28-.72,.71-.34,.42-.42,.89-.52,.89-.09,.02-.16-.58,.25-1.11,.41-.54,.98-.58,.99-.48Z"/><path class="ae" d="M351.02,239.79c-.09,.02-.23-.49,.02-1.05,.24-.56,.7-.79,.74-.7,.06,.08-.24,.39-.43,.85-.21,.46-.23,.89-.33,.9Z"/></g></g><g><path class="am" d="M325.61,138.58s-5.05,22.63-9.31,48.72c-3.51,21.46-5.06,44.69-5.06,44.69l10.33,.61s6.3-26.61,11.2-45.74c4.52-17.64,8.2-26.9,8.2-26.9l2.07-23.28-17.42,1.91Z"/><path class="am" d="M354.12,134.07s9.06,12.25,8.3,25.04c-.46,7.65-15.95,75.63-15.95,75.63l-9.18-.31,2.93-72.22-3.11-23.64,17-4.5Z"/></g></g><path class="am" d="M326.3,101.1s-.03,.13-.05,.38c-.02,.28-.05,.64-.08,1.09-.07,.95-.12,2.32-.16,4.03-.06,3.4,.1,8.1,.44,13.28,.34,5.18,.63,9.86,.7,13.26,.04,1.7,.05,3.07,.04,4.02v1.09c0,.25,.01,.38,.02,.38,.01,0,.02-.13,.04-.38,.01-.28,.03-.64,.05-1.09,.05-.95,.07-2.33,.06-4.03-.01-3.4-.27-8.1-.61-13.27-.34-5.17-.53-9.86-.52-13.26,0-1.7,.02-3.07,.06-4.02,.01-.45,.02-.81,.03-1.09,0-.25,0-.38-.01-.38Z"/><g><g><g><path class="ab" d="M295.94,101.77l5.53,2.03,6.04,8.17-1.65,2.86-1.63-1.53s-6.22-1.16-6.66-2.04c-.44-.89,.06-1.64,.06-1.64,0,0-.26-.97-.05-1.72,.21-.75,.78-.86,.78-.86,0,0-.68-.28-.39-1.15,.29-.87,.9-1.03,.9-1.03,0,0-3.71-1.76-4.04-2.26-.12-.17-.07-.35,.04-.5,.24-.34,.69-.46,1.08-.31Z"/><path class="ab" d="M308.45,110.27l-1.12-1.57-2.41-4.37-5.37-1.45s-.9,.42,.35,2.03c1.25,1.6,3,1.28,3,1.28,0,0-.38,3.49,.57,5.04,.95,1.56,3.51,1.69,3.51,1.69l1.48-2.65Z"/><path class="ad" d="M303.4,111.47s-.1-.11-.24-.35c-.13-.23-.3-.59-.44-1.06-.29-.93-.41-2.38,.15-3.81l.08,.16-.19-.03c-.73-.12-1.44-.28-2.03-.59-.59-.3-1.02-.8-1.22-1.27-.22-.47-.23-.92-.17-1.2,.06-.29,.15-.42,.16-.41,.02,0-.05,.15-.08,.43-.03,.27,0,.68,.22,1.12,.22,.44,.61,.88,1.18,1.15,.56,.29,1.25,.44,1.97,.55l.19,.03,.14,.02-.05,.13c-.53,1.37-.45,2.76-.21,3.68,.24,.93,.57,1.43,.53,1.45Z"/><path class="ad" d="M298.5,107.2s.2,.07,.55,.2c.35,.13,.87,.3,1.5,.54,.31,.13,.66,.27,1,.5,.17,.11,.36,.26,.45,.5,.09,.24,.03,.53-.1,.73-.13,.21-.33,.38-.56,.48-.24,.11-.52,.09-.75,.04-.12-.02-.24-.05-.35-.06-.13-.02-.25-.05-.38-.09-.24-.07-.48-.16-.72-.25l-.64-.25,.07-.22c.47,.17,.85,.45,1.23,.7,.18,.13,.36,.25,.54,.37,.17,.12,.36,.21,.53,.35,.17,.14,.31,.36,.3,.6,0,.12-.04,.24-.11,.33-.07,.09-.17,.15-.26,.19-.36,.14-.7,.16-1.01,.14-.62-.06-1.08-.25-1.39-.37-.31-.13-.48-.22-.47-.23,0-.01,.18,.04,.5,.15,.32,.1,.78,.26,1.37,.3,.29,.01,.62-.02,.93-.15,.15-.07,.26-.19,.25-.35,0-.17-.1-.32-.24-.44-.14-.12-.33-.21-.52-.33-.18-.12-.36-.24-.55-.37-.37-.25-.75-.51-1.18-.66l.07-.22c.21,.08,.42,.17,.64,.25,.24,.09,.47,.18,.71,.25,.12,.03,.23,.07,.35,.08,.13,.02,.25,.04,.36,.06,.23,.05,.45,.06,.64-.02,.19-.08,.36-.23,.47-.4,.11-.17,.16-.37,.09-.55-.06-.17-.21-.31-.37-.42-.32-.22-.65-.37-.96-.51-.62-.26-1.13-.45-1.47-.61-.35-.15-.52-.27-.52-.28Z"/><path class="ad" d="M298.92,104.89s.46,.08,1.14,.4c.34,.16,.73,.38,1.15,.66,.21,.14,.42,.3,.63,.47,.2,.17,.47,.38,.52,.75,.02,.19-.07,.37-.19,.48-.12,.12-.27,.18-.42,.21-.29,.05-.55,.02-.8-.01-.49-.07-.92-.18-1.28-.28-.72-.2-1.14-.42-1.12-.45,.01-.03,.44,.13,1.16,.29,.36,.08,.79,.17,1.27,.23,.24,.02,.49,.05,.73,0,.23-.04,.45-.22,.43-.45-.02-.23-.23-.43-.43-.59-.21-.17-.41-.33-.61-.47-.4-.28-.78-.51-1.1-.69-.65-.35-1.08-.51-1.07-.55Z"/></g><path class="ae" d="M318.67,114.8l5.54-17.77c.51-1.63,1.75-2.89,3.32-3.38l3.39-.77-3.75,28.85-.84,2.16c-1.98,4.41-6.32,3.67-10.14,1.72-.14-.07-.27-.14-.4-.22l-11.18-9.01,3.7-6.66,10.36,5.08Z"/></g><g><path class="g" d="M353.45,102.1l-3.75,34.96-20.75,1.52-1.65-1.41,.57-26.39,7.45-18.8h0c.89,1.68,2.58,2.25,4.63,2.09,1.4-.11,2.72-.65,3.86-1.46l3.43-2.47,6.2,11.97Z"/><g><path class="ae" d="M347.25,90.13l2.53,2.75,11.87,2.84-6.95,33.6,5.29,13c.56,1.37,1.02,2.77,1.39,4.2l3.26,12.75s-11.23,3.06-14.11,1.39c-2.89-1.67-6.42-17.89-7.49-21.74-1.07-3.85-2.67-15.3-1.93-21.39,.75-6.1,2.65-12.93,3.29-16.04,.64-3.1,2.84-11.37,2.84-11.37Z"/><path class="ae" d="M359.51,125.24l-2.67-10.38,4.81-19.14s2.25,1.61,3.74,7.48c1.56,6.15,6.8,23.09,6.47,27.05-.32,3.96-21.24,11.14-21.24,11.14l-.86-11.02,9.73-5.13Z"/><path class="ae" d="M335.32,89.55l-1.63,2.53-6.82,1.72s-1.79,8.98-1.79,11.44,1.01,29.73,1.01,31.02-4.92,18.72-4.49,19.79c.43,1.07,5.56,1.82,5.56,1.82,0,0,1.93-15.08,1.93-20.22s.21-17.76,1.28-23.96c1.07-6.2,4.92-21.61,4.92-21.61l.03-2.53Z"/><path class="am" d="M310.96,129.41l5.84,7.89c.24,.33,.65,.49,1.05,.41l25.26-4.77c.63-.12,1.01-.77,.82-1.38l-2.73-8.39c-.17-.51-.68-.82-1.21-.72l-28.38,5.27c-.77,.14-1.13,1.05-.66,1.68Z"/><g class="a`"><polygon points="359.42 140.91 349.44 144.58 348.4 140.44 343.67 141.39 343.04 139 350.45 137.96 350.53 141.39 358.28 138.46 359.42 140.91"/></g><g><path class="ab" d="M349.85,131.25s-2-1.69-2.61-2.07c-.62-.38-2.71-1.76-3.66-1.62l-.95,.14,.86,2.52s-7.65-1.14-8.7,.1c-1.05,1.24,1.14,1.47,2.28,1.62,1.14,.14,4.81,.76,4.81,.76,0,0-9.56-1.05-10.23,0-.67,1.05,.93,1.28,.93,1.28l6.33,2.52,.73,.29,.73,.95s2.6,1.81,3.41,1.57c.81-.24,6.69-1.36,6.69-1.36l-.61-6.7Z"/><path class="ad" d="M343.2,135.58s-.55-.22-1.48-.45c-.93-.23-2.23-.5-3.67-.7-1.45-.2-2.77-.3-3.73-.33-.96-.03-1.55,0-1.55,.03,0,.04,.59,.08,1.54,.17,.95,.08,2.26,.21,3.7,.41,1.44,.2,2.73,.44,3.67,.62,.94,.18,1.51,.3,1.52,.26Z"/><path class="ad" d="M342.33,137.42c.02-.07-.59-.3-1.37-.5-.78-.2-1.42-.31-1.44-.23-.02,.07,.59,.3,1.37,.5,.78,.2,1.42,.31,1.44,.23Z"/></g></g></g></g></g><g><circle class="ai" cx="72.01" cy="27.73" r="1.82"/><circle class="f" cx="77.45" cy="27.73" r="1.82"/><circle class="ac" cx="82.62" cy="27.73" r="1.82"/></g></g></g></svg>